<?xml version="1.0" standalone="no"?>
<!DOCTYPE svg PUBLIC "-//W3C//DTD SVG 20010904//EN"
 "http://www.w3.org/TR/2001/REC-SVG-20010904/DTD/svg10.dtd">
<svg version="1.0" xmlns="http://www.w3.org/2000/svg"
 width="260.000000pt" height="260.000000pt" viewBox="0 0 260.000000 260.000000"
 preserveAspectRatio="xMidYMid meet">
<metadata>
Created by potrace 1.14, written by Peter Selinger 2001-2017
</metadata>
<g transform="translate(0.000000,260.000000) scale(0.100000,-0.100000)"
fill="#000000" stroke="none">
<path d="M361 2584 c-169 -45 -301 -180 -346 -351 -22 -86 -22 -1780 0 -1866
45 -173 178 -307 350 -352 89 -23 1781 -23 1870 0 172 45 305 179 350 352 23
87 22 1781 0 1868 -45 172 -179 305 -352 350 -84 22 -1790 21 -1872 -1z m1379
-954 c0 -156 4 -250 10 -250 5 0 77 61 160 135 l150 136 61 -3 62 -3 -147
-130 c-80 -71 -146 -133 -146 -137 0 -4 69 -87 153 -185 83 -98 158 -186 166
-196 12 -16 9 -17 -50 -17 l-64 0 -135 161 c-74 88 -138 163 -142 165 -4 3
-24 -7 -43 -22 l-35 -26 0 -139 0 -139 -45 0 -45 0 0 450 0 450 45 0 45 0 0
-250z m-450 29 c36 -5 69 -14 73 -18 5 -5 4 -27 -2 -49 l-11 -40 -53 14 c-73
19 -164 17 -213 -5 -86 -39 -138 -135 -136 -250 3 -196 155 -301 359 -247 l52
14 9 -42 c10 -50 8 -52 -89 -67 -196 -30 -351 43 -407 194 -30 79 -31 223 -2
299 60 160 211 231 420 197z m-758 -194 c81 -88 146 -166 145 -174 -3 -23
-280 -309 -306 -317 -31 -9 -55 6 -59 37 -2 19 23 51 118 151 66 69 120 129
120 132 0 3 -54 65 -120 138 -118 130 -135 159 -108 186 30 30 61 8 210 -153z
m1698 -704 c14 -27 13 -37 -6 -55 -14 -14 -88 -16 -669 -16 -581 0 -655 2
-669 16 -19 18 -21 45 -4 62 9 9 173 12 675 12 645 0 663 -1 673 -19z"/>
</g>
</svg>
